<?xml version="1.0" standalone="no"?>
<!DOCTYPE svg PUBLIC "-//W3C//DTD SVG 20010904//EN"
 "http://www.w3.org/TR/2001/REC-SVG-20010904/DTD/svg10.dtd">
<svg version="1.0" xmlns="http://www.w3.org/2000/svg"
 width="260.000000pt" height="260.000000pt" viewBox="0 0 260.000000 260.000000"
 preserveAspectRatio="xMidYMid meet">
<metadata>
Created by potrace 1.11, written by Peter Selinger 2001-2013
</metadata>
<g transform="translate(0.000000,260.000000) scale(0.100000,-0.100000)"
fill="#000000" stroke="none">
<path d="M1290 2382 c-39 -12 -190 -182 -277 -312 -171 -255 -333 -691 -369
-994 -5 -43 -14 -67 -34 -90 -50 -57 -127 -184 -160 -262 -64 -154 -109 -394
-80 -429 22 -26 59 -17 252 66 l189 81 45 -42 c42 -39 133 -90 162 -90 7 0 12
-13 12 -33 0 -18 6 -42 14 -53 13 -18 30 -19 243 -22 266 -3 275 -1 283 67 5
41 8 44 52 61 50 19 97 48 140 88 l26 24 134 -58 c224 -96 242 -104 269 -104
44 0 53 21 45 106 -18 202 -109 429 -231 579 -35 42 -43 61 -49 110 -27 235
-126 542 -258 805 -83 167 -172 294 -291 420 -75 78 -92 90 -117 82z m79 -188
c201 -220 385 -614 468 -1004 24 -114 24 -338 0 -430 -24 -89 -78 -200 -121
-247 -40 -45 -151 -109 -161 -93 -9 14 -480 14 -503 -1 -14 -9 -28 -6 -68 14
-97 49 -175 163 -216 316 -31 112 -30 329 1 465 65 283 201 615 332 808 52 76
187 238 198 238 5 0 36 -30 70 -66z m-679 -1541 c7 -21 23 -59 37 -85 13 -27
19 -48 13 -48 -6 0 -65 -25 -132 -55 -66 -30 -125 -55 -131 -55 -14 0 1 84 33
182 30 91 78 192 113 242 l20 29 18 -86 c9 -47 23 -103 29 -124z m1329 107
c62 -116 132 -350 104 -350 -5 0 -67 26 -139 58 l-130 58 28 60 c31 67 68 201
68 248 0 26 2 28 14 16 8 -8 33 -49 55 -90z m-549 -445 c0 -13 -26 -15 -170
-15 -144 0 -170 2 -170 15 0 13 26 15 170 15 144 0 170 -2 170 -15z"/>
<path d="M1236 1948 c-25 -7 -57 -28 -86 -58 -109 -108 -83 -278 54 -345 143
-70 299 17 313 174 5 52 2 68 -21 114 -28 58 -77 100 -137 117 -41 12 -71 11
-123 -2z m114 -103 c65 -33 88 -102 55 -165 -30 -58 -119 -79 -169 -39 -76 60
-67 168 17 204 41 18 62 18 97 0z"/>
<path d="M1049 1023 c-23 -6 -147 -156 -165 -199 -12 -28 -13 -43 -5 -66 14
-39 129 -182 160 -200 14 -8 55 -13 101 -13 89 0 125 17 138 68 12 43 0 80
-42 131 l-34 42 38 50 c54 69 57 119 11 165 -28 27 -34 29 -108 28 -43 -1 -85
-3 -94 -6z m131 -99 c0 -3 -25 -35 -56 -71 -48 -57 -53 -67 -41 -82 62 -74 97
-118 97 -124 0 -4 -20 -7 -44 -7 -43 0 -47 2 -105 73 l-60 74 57 71 c56 70 58
71 105 71 26 1 47 -2 47 -5z"/>
<path d="M1349 1001 c-46 -47 -43 -96 11 -166 l39 -50 -35 -42 c-57 -69 -62
-122 -18 -167 29 -29 92 -42 160 -32 59 8 68 15 147 112 73 90 87 127 65 171
-24 48 -141 185 -166 194 -13 5 -57 9 -98 9 -70 0 -78 -2 -105 -29z m221 -141
c30 -38 54 -73 52 -77 -1 -4 -27 -38 -58 -75 -53 -65 -57 -68 -100 -68 -24 0
-44 3 -44 7 0 6 35 50 97 124 12 15 7 25 -41 82 -31 36 -56 68 -56 71 0 3 21
6 48 6 46 -1 48 -2 102 -70z"/>
</g>
</svg>
